# xmcd CD database file
#
# Track frame offsets:
#	183
#	19225
#	35428
#	56258
#	71510
#	88098
#	107235
#	137040
#	153883
#
# Disc length: 2373 seconds
#
# Revision: 0
# Processed by: cddbd v1.4PL0 Copyright (c) Steve Scherf et al.
# Submitted via: CDex 1.50
#
DISCID=70094309
DTITLE=Zoller/ Koller /Solal - ZoKoSo
DYEAR=1965
DGENRE=Jazz
TTITLE0=Mr Heine's blues
TTITLE1=The end of a love affair
TTITLE2=Stella by starlight
TTITLE3=After glow
TTITLE4=My old flame
TTITLE5=Away from the crowd
TTITLE6=All the things you are
TTITLE7=Stompin' at the Savoy
TTITLE8=H.J. meets M.A.H.
EXTD=YEAR: 1965
EXTT0=
EXTT1=
EXTT2=
EXTT3=
EXTT4=
EXTT5=
EXTT6=
EXTT7=
EXTT8=
PLAYORDER=
